<?xml version="1.0" encoding="UTF-8"?>
<svg width="30px" height="30px" viewBox="0 0 30 30" version="1.1" xmlns="http://www.w3.org/2000/svg" xmlns:xlink="http://www.w3.org/1999/xlink">
    <!-- Generator: Sketch 55.2 (78181) - https://sketchapp.com -->
    <title>Icon / 30 / Ticketbooth / Ocean</title>
    <desc>Created with Sketch.</desc>
    <defs>
        <path d="M6,9 L24,9 C24.5522847,9 25,9.44771525 25,10 L25,13 C23.6666667,13.0001869 23,13.6668536 23,15 C23,16.3331464 23.6666667,16.9998131 25,17 L25,20 C25,20.5522847 24.5522847,21 24,21 L6,21 C5.44771525,21 5,20.5522847 5,20 L5,17 C6.33333333,16.9998131 7,16.3331464 7,15 C7,13.6668536 6.33333333,13.0001869 5,13 L5,10 C5,9.44771525 5.44771525,9 6,9 Z" id="path-1"></path>
    </defs>
    <g id="Icon-/-30-/-Ticketbooth-/-Ocean" stroke="none" stroke-width="1" fill="none" fill-rule="evenodd">
        <mask id="mask-2" fill="white">
            <use xlink:href="#path-1"></use>
        </mask>
        <use id="Combined-Shape" fill="#00A5DB" transform="translate(15.000000, 15.000000) rotate(-45.000000) translate(-15.000000, -15.000000) " xlink:href="#path-1"></use>
    </g>
</svg>